<mxfile host="app.diagrams.net" modified="2023-06-06T07:17:20.331Z" agent="Mozilla/5.0 (Windows NT 10.0; Win64; x64) AppleWebKit/537.36 (KHTML, like Gecko) Chrome/114.0.0.0 Safari/537.36" etag="jQw3Q_DunxGQzyeiv2GJ" version="21.3.7" type="device">
  <diagram id="prtHgNgQTEPvFCAcTncT" name="Page-1">
    <mxGraphModel dx="1434" dy="788" grid="1" gridSize="10" guides="1" tooltips="1" connect="1" arrows="1" fold="1" page="1" pageScale="1" pageWidth="1169" pageHeight="827" background="#7EA6E0" math="0" shadow="0">
      <root>
        <mxCell id="0" />
        <mxCell id="1" parent="0" />
        <mxCell id="UhRguGdmt0HefPnRNSgS-1" value="Bluetoothctl" style="swimlane;whiteSpace=wrap;html=1;rounded=1;labelBackgroundColor=none;fillColor=#182E3E;strokeColor=#FFFFFF;fontColor=#FFFFFF;" vertex="1" parent="1">
          <mxGeometry x="27.75" y="134" width="160" height="560" as="geometry" />
        </mxCell>
        <mxCell id="UhRguGdmt0HefPnRNSgS-14" style="edgeStyle=orthogonalEdgeStyle;rounded=1;orthogonalLoop=1;jettySize=auto;html=1;exitX=0.5;exitY=1;exitDx=0;exitDy=0;entryX=0.75;entryY=0;entryDx=0;entryDy=0;labelBackgroundColor=none;strokeColor=#23445D;fontColor=default;" edge="1" parent="UhRguGdmt0HefPnRNSgS-1" source="UhRguGdmt0HefPnRNSgS-10" target="UhRguGdmt0HefPnRNSgS-17">
          <mxGeometry relative="1" as="geometry">
            <mxPoint x="80" y="170" as="targetPoint" />
          </mxGeometry>
        </mxCell>
        <mxCell id="UhRguGdmt0HefPnRNSgS-10" value="Mando pulsado" style="ellipse;whiteSpace=wrap;html=1;aspect=fixed;rounded=1;labelBackgroundColor=none;fillColor=#182E3E;strokeColor=#FFFFFF;fontColor=#FFFFFF;" vertex="1" parent="UhRguGdmt0HefPnRNSgS-1">
          <mxGeometry x="70" y="50" width="80" height="80" as="geometry" />
        </mxCell>
        <mxCell id="UhRguGdmt0HefPnRNSgS-17" value="Generación de credencial" style="rounded=1;whiteSpace=wrap;html=1;labelBackgroundColor=none;fillColor=#182E3E;strokeColor=#FFFFFF;fontColor=#FFFFFF;" vertex="1" parent="UhRguGdmt0HefPnRNSgS-1">
          <mxGeometry x="20" y="180" width="120" height="60" as="geometry" />
        </mxCell>
        <mxCell id="UhRguGdmt0HefPnRNSgS-30" value="Personal" style="shape=umlActor;verticalLabelPosition=bottom;verticalAlign=top;html=1;outlineConnect=0;rounded=1;labelBackgroundColor=none;fillColor=#182E3E;strokeColor=#FFFFFF;fontColor=#FFFFFF;" vertex="1" parent="UhRguGdmt0HefPnRNSgS-1">
          <mxGeometry x="20" y="60" width="30" height="60" as="geometry" />
        </mxCell>
        <mxCell id="UhRguGdmt0HefPnRNSgS-4" value="FreeRADIUS" style="swimlane;whiteSpace=wrap;html=1;rounded=1;labelBackgroundColor=none;fillColor=#182E3E;strokeColor=#FFFFFF;fontColor=#FFFFFF;" vertex="1" parent="1">
          <mxGeometry x="187.75" y="134" width="159" height="560" as="geometry" />
        </mxCell>
        <mxCell id="UhRguGdmt0HefPnRNSgS-5" value="Python escpos, PIL" style="swimlane;whiteSpace=wrap;html=1;rounded=1;labelBackgroundColor=none;fillColor=#182E3E;strokeColor=#FFFFFF;fontColor=#FFFFFF;" vertex="1" parent="1">
          <mxGeometry x="346.75" y="134" width="159" height="560" as="geometry" />
        </mxCell>
        <mxCell id="UhRguGdmt0HefPnRNSgS-11" value="Ticket QR" style="shape=document;whiteSpace=wrap;html=1;boundedLbl=1;rounded=1;labelBackgroundColor=none;fillColor=#182E3E;strokeColor=#FFFFFF;fontColor=#FFFFFF;" vertex="1" parent="UhRguGdmt0HefPnRNSgS-5">
          <mxGeometry x="19.5" y="40" width="120" height="80" as="geometry" />
        </mxCell>
        <mxCell id="UhRguGdmt0HefPnRNSgS-63" value="" style="ellipse;whiteSpace=wrap;html=1;aspect=fixed;rounded=1;labelBackgroundColor=none;fillColor=#182E3E;strokeColor=#FFFFFF;fontColor=#FFFFFF;" vertex="1" parent="UhRguGdmt0HefPnRNSgS-5">
          <mxGeometry x="51" y="160" width="80" height="80" as="geometry" />
        </mxCell>
        <mxCell id="UhRguGdmt0HefPnRNSgS-26" value="Cliente" style="shape=umlActor;verticalLabelPosition=bottom;verticalAlign=top;html=1;outlineConnect=0;rounded=1;labelBackgroundColor=none;fillColor=#182E3E;strokeColor=#FFFFFF;fontColor=#FFFFFF;" vertex="1" parent="UhRguGdmt0HefPnRNSgS-5">
          <mxGeometry x="76" y="170" width="30" height="60" as="geometry" />
        </mxCell>
        <mxCell id="UhRguGdmt0HefPnRNSgS-6" value="hostapd" style="swimlane;whiteSpace=wrap;html=1;startSize=23;rounded=1;labelBackgroundColor=none;fillColor=#182E3E;strokeColor=#FFFFFF;fontColor=#FFFFFF;" vertex="1" parent="1">
          <mxGeometry x="505.75" y="134" width="159" height="560" as="geometry" />
        </mxCell>
        <mxCell id="UhRguGdmt0HefPnRNSgS-23" value="Conecta a la WiFi" style="rounded=1;whiteSpace=wrap;html=1;labelBackgroundColor=none;fillColor=#182E3E;strokeColor=#FFFFFF;fontColor=#FFFFFF;" vertex="1" parent="UhRguGdmt0HefPnRNSgS-6">
          <mxGeometry x="20" y="170" width="120" height="60" as="geometry" />
        </mxCell>
        <mxCell id="UhRguGdmt0HefPnRNSgS-7" value="dnsmasq" style="swimlane;whiteSpace=wrap;html=1;startSize=23;rounded=1;labelBackgroundColor=none;fillColor=#182E3E;strokeColor=#FFFFFF;fontColor=#FFFFFF;" vertex="1" parent="1">
          <mxGeometry x="664.75" y="134" width="159" height="560" as="geometry" />
        </mxCell>
        <mxCell id="UhRguGdmt0HefPnRNSgS-24" value="Obtiene una IP" style="rounded=1;whiteSpace=wrap;html=1;labelBackgroundColor=none;fillColor=#182E3E;strokeColor=#FFFFFF;fontColor=#FFFFFF;" vertex="1" parent="UhRguGdmt0HefPnRNSgS-7">
          <mxGeometry x="19.5" y="170" width="120" height="60" as="geometry" />
        </mxCell>
        <mxCell id="UhRguGdmt0HefPnRNSgS-8" value="nodogsplash" style="swimlane;whiteSpace=wrap;html=1;startSize=23;rounded=1;labelBackgroundColor=none;fillColor=#182E3E;strokeColor=#FFFFFF;fontColor=#FFFFFF;" vertex="1" parent="1">
          <mxGeometry x="823.75" y="134" width="159.5" height="560" as="geometry" />
        </mxCell>
        <mxCell id="UhRguGdmt0HefPnRNSgS-61" value="" style="edgeStyle=orthogonalEdgeStyle;rounded=1;orthogonalLoop=1;jettySize=auto;html=1;labelBackgroundColor=none;strokeColor=#23445D;fontColor=default;" edge="1" parent="UhRguGdmt0HefPnRNSgS-8" source="UhRguGdmt0HefPnRNSgS-36" target="UhRguGdmt0HefPnRNSgS-60">
          <mxGeometry relative="1" as="geometry" />
        </mxCell>
        <mxCell id="UhRguGdmt0HefPnRNSgS-36" value="Verificación de acceso" style="rhombus;whiteSpace=wrap;html=1;rounded=1;labelBackgroundColor=none;fillColor=#182E3E;strokeColor=#FFFFFF;fontColor=#FFFFFF;" vertex="1" parent="UhRguGdmt0HefPnRNSgS-8">
          <mxGeometry x="39.5" y="280" width="80" height="80" as="geometry" />
        </mxCell>
        <mxCell id="UhRguGdmt0HefPnRNSgS-51" value="Reject" style="text;html=1;align=center;verticalAlign=middle;resizable=0;points=[];autosize=1;strokeColor=none;fillColor=none;rounded=1;labelBackgroundColor=none;fontColor=#FFFFFF;" vertex="1" parent="UhRguGdmt0HefPnRNSgS-8">
          <mxGeometry x="84" y="350" width="60" height="30" as="geometry" />
        </mxCell>
        <mxCell id="UhRguGdmt0HefPnRNSgS-52" value="OK" style="text;html=1;align=center;verticalAlign=middle;resizable=0;points=[];autosize=1;strokeColor=none;fillColor=none;rounded=1;labelBackgroundColor=none;fontColor=#FFFFFF;" vertex="1" parent="UhRguGdmt0HefPnRNSgS-8">
          <mxGeometry x="119.5" y="290" width="40" height="30" as="geometry" />
        </mxCell>
        <mxCell id="UhRguGdmt0HefPnRNSgS-58" style="edgeStyle=orthogonalEdgeStyle;rounded=1;orthogonalLoop=1;jettySize=auto;html=1;exitX=0.5;exitY=1;exitDx=0;exitDy=0;entryX=0.5;entryY=0;entryDx=0;entryDy=0;labelBackgroundColor=none;strokeColor=#23445D;fontColor=default;" edge="1" parent="UhRguGdmt0HefPnRNSgS-8" source="UhRguGdmt0HefPnRNSgS-55" target="UhRguGdmt0HefPnRNSgS-36">
          <mxGeometry relative="1" as="geometry" />
        </mxCell>
        <mxCell id="UhRguGdmt0HefPnRNSgS-55" value="Acceso &lt;br&gt;a portal cautivo" style="whiteSpace=wrap;html=1;rounded=1;labelBackgroundColor=none;fillColor=#182E3E;strokeColor=#FFFFFF;fontColor=#FFFFFF;" vertex="1" parent="UhRguGdmt0HefPnRNSgS-8">
          <mxGeometry x="19.5" y="170" width="120" height="60" as="geometry" />
        </mxCell>
        <mxCell id="UhRguGdmt0HefPnRNSgS-60" value="Mensaje de rechazo" style="ellipse;whiteSpace=wrap;html=1;rounded=1;labelBackgroundColor=none;fillColor=#182E3E;strokeColor=#FFFFFF;fontColor=#FFFFFF;" vertex="1" parent="UhRguGdmt0HefPnRNSgS-8">
          <mxGeometry x="39.5" y="420" width="80" height="80" as="geometry" />
        </mxCell>
        <mxCell id="UhRguGdmt0HefPnRNSgS-25" style="edgeStyle=orthogonalEdgeStyle;rounded=1;orthogonalLoop=1;jettySize=auto;html=1;exitX=1;exitY=0.5;exitDx=0;exitDy=0;entryX=0;entryY=0.5;entryDx=0;entryDy=0;labelBackgroundColor=none;strokeColor=#23445D;fontColor=default;" edge="1" parent="1" source="UhRguGdmt0HefPnRNSgS-17" target="UhRguGdmt0HefPnRNSgS-11">
          <mxGeometry relative="1" as="geometry">
            <mxPoint x="357.75" y="494" as="targetPoint" />
          </mxGeometry>
        </mxCell>
        <mxCell id="UhRguGdmt0HefPnRNSgS-32" value="" style="edgeStyle=orthogonalEdgeStyle;rounded=1;orthogonalLoop=1;jettySize=auto;html=1;exitX=0.5;exitY=1;exitDx=0;exitDy=0;entryX=0;entryY=0.5;entryDx=0;entryDy=0;labelBackgroundColor=none;strokeColor=#23445D;fontColor=default;" edge="1" parent="1" source="UhRguGdmt0HefPnRNSgS-17" target="UhRguGdmt0HefPnRNSgS-20">
          <mxGeometry relative="1" as="geometry">
            <mxPoint x="107.75" y="374" as="sourcePoint" />
            <mxPoint x="366.75" y="464" as="targetPoint" />
          </mxGeometry>
        </mxCell>
        <mxCell id="UhRguGdmt0HefPnRNSgS-65" style="edgeStyle=orthogonalEdgeStyle;rounded=1;orthogonalLoop=1;jettySize=auto;html=1;exitX=1;exitY=0.5;exitDx=0;exitDy=0;exitPerimeter=0;entryX=0;entryY=0.5;entryDx=0;entryDy=0;labelBackgroundColor=none;strokeColor=#23445D;fontColor=default;startArrow=classic;startFill=1;" edge="1" parent="1" source="UhRguGdmt0HefPnRNSgS-20" target="UhRguGdmt0HefPnRNSgS-36">
          <mxGeometry relative="1" as="geometry" />
        </mxCell>
        <mxCell id="UhRguGdmt0HefPnRNSgS-20" value="BD" style="shape=cylinder3;whiteSpace=wrap;html=1;boundedLbl=1;backgroundOutline=1;size=15;rounded=1;labelBackgroundColor=none;fillColor=#182E3E;strokeColor=#FFFFFF;fontColor=#FFFFFF;" vertex="1" parent="1">
          <mxGeometry x="237.25" y="414" width="60" height="80" as="geometry" />
        </mxCell>
        <mxCell id="UhRguGdmt0HefPnRNSgS-35" style="edgeStyle=orthogonalEdgeStyle;rounded=1;orthogonalLoop=1;jettySize=auto;html=1;exitX=1;exitY=0.5;exitDx=0;exitDy=0;entryX=0;entryY=0.5;entryDx=0;entryDy=0;labelBackgroundColor=none;strokeColor=#23445D;fontColor=default;" edge="1" parent="1" source="UhRguGdmt0HefPnRNSgS-23" target="UhRguGdmt0HefPnRNSgS-24">
          <mxGeometry relative="1" as="geometry" />
        </mxCell>
        <mxCell id="UhRguGdmt0HefPnRNSgS-56" value="" style="edgeStyle=orthogonalEdgeStyle;rounded=1;orthogonalLoop=1;jettySize=auto;html=1;labelBackgroundColor=none;strokeColor=#23445D;fontColor=default;" edge="1" parent="1" source="UhRguGdmt0HefPnRNSgS-24" target="UhRguGdmt0HefPnRNSgS-55">
          <mxGeometry relative="1" as="geometry" />
        </mxCell>
        <mxCell id="UhRguGdmt0HefPnRNSgS-9" value="iptables" style="swimlane;whiteSpace=wrap;html=1;startSize=23;rounded=1;labelBackgroundColor=none;fillColor=#182E3E;strokeColor=#FFFFFF;fontColor=#FFFFFF;" vertex="1" parent="1">
          <mxGeometry x="983.25" y="134" width="159" height="560" as="geometry" />
        </mxCell>
        <mxCell id="UhRguGdmt0HefPnRNSgS-50" style="edgeStyle=orthogonalEdgeStyle;rounded=1;orthogonalLoop=1;jettySize=auto;html=1;exitX=0.5;exitY=1;exitDx=0;exitDy=0;entryX=0.503;entryY=0.125;entryDx=0;entryDy=0;entryPerimeter=0;labelBackgroundColor=none;strokeColor=#23445D;fontColor=default;" edge="1" parent="UhRguGdmt0HefPnRNSgS-9" source="UhRguGdmt0HefPnRNSgS-40" target="UhRguGdmt0HefPnRNSgS-47">
          <mxGeometry relative="1" as="geometry" />
        </mxCell>
        <mxCell id="UhRguGdmt0HefPnRNSgS-40" value="Ajuste de iptables" style="whiteSpace=wrap;html=1;rounded=1;labelBackgroundColor=none;fillColor=#182E3E;strokeColor=#FFFFFF;fontColor=#FFFFFF;" vertex="1" parent="UhRguGdmt0HefPnRNSgS-9">
          <mxGeometry x="19.5" y="290" width="120" height="60" as="geometry" />
        </mxCell>
        <mxCell id="UhRguGdmt0HefPnRNSgS-47" value="Acceso&lt;br&gt;a Internet" style="ellipse;shape=cloud;whiteSpace=wrap;html=1;rounded=1;labelBackgroundColor=none;fillColor=#182E3E;strokeColor=#FFFFFF;fontColor=#FFFFFF;" vertex="1" parent="UhRguGdmt0HefPnRNSgS-9">
          <mxGeometry x="19.5" y="420" width="120" height="80" as="geometry" />
        </mxCell>
        <mxCell id="UhRguGdmt0HefPnRNSgS-57" style="edgeStyle=orthogonalEdgeStyle;rounded=1;orthogonalLoop=1;jettySize=auto;html=1;exitX=1;exitY=0.5;exitDx=0;exitDy=0;entryX=0.5;entryY=0;entryDx=0;entryDy=0;labelBackgroundColor=none;strokeColor=#23445D;fontColor=default;" edge="1" parent="1" source="UhRguGdmt0HefPnRNSgS-11" target="UhRguGdmt0HefPnRNSgS-55">
          <mxGeometry relative="1" as="geometry" />
        </mxCell>
        <mxCell id="UhRguGdmt0HefPnRNSgS-59" style="edgeStyle=orthogonalEdgeStyle;rounded=1;orthogonalLoop=1;jettySize=auto;html=1;exitX=1;exitY=0.5;exitDx=0;exitDy=0;entryX=0;entryY=0.5;entryDx=0;entryDy=0;labelBackgroundColor=none;strokeColor=#23445D;fontColor=default;" edge="1" parent="1" source="UhRguGdmt0HefPnRNSgS-36" target="UhRguGdmt0HefPnRNSgS-40">
          <mxGeometry relative="1" as="geometry" />
        </mxCell>
        <mxCell id="UhRguGdmt0HefPnRNSgS-64" style="edgeStyle=orthogonalEdgeStyle;rounded=1;orthogonalLoop=1;jettySize=auto;html=1;exitX=1;exitY=0.5;exitDx=0;exitDy=0;entryX=0;entryY=0.5;entryDx=0;entryDy=0;labelBackgroundColor=none;strokeColor=#23445D;fontColor=default;" edge="1" parent="1" source="UhRguGdmt0HefPnRNSgS-63" target="UhRguGdmt0HefPnRNSgS-23">
          <mxGeometry relative="1" as="geometry" />
        </mxCell>
        <mxCell id="UhRguGdmt0HefPnRNSgS-66" value="&lt;h1 style=&quot;text-align: center;&quot;&gt;$canSecurity - ejemplo de implementación&lt;/h1&gt;&lt;p&gt;El caso de conexión básico, con un mando de Bluetooth para solicitar una nueva credencial de acceso&lt;/p&gt;" style="text;html=1;spacing=5;spacingTop=-20;whiteSpace=wrap;overflow=hidden;rounded=0;" vertex="1" parent="1">
          <mxGeometry x="305" y="20" width="560" height="80" as="geometry" />
        </mxCell>
      </root>
    </mxGraphModel>
  </diagram>
</mxfile>
